<?xml version="1.0" encoding="iso-8859-1"?>
<!-- Generator: Adobe Illustrator 19.0.0, SVG Export Plug-In . SVG Version: 6.00 Build 0)  -->
<svg version="1.1" id="Capa_1" xmlns="http://www.w3.org/2000/svg" xmlns:xlink="http://www.w3.org/1999/xlink" x="0px" y="0px"
	 viewBox="0 0 512 512" style="enable-background:new 0 0 512 512;" xml:space="preserve">
<g>
	<g>
		<path d="M266.667,160.006h-21.333c-29.397,0-53.333,23.936-53.333,53.333v85.333c0,29.419,23.936,53.333,53.333,53.333h21.333
			c29.397,0,53.333-23.915,53.333-53.333V213.34C320,183.942,296.064,160.006,266.667,160.006z M298.667,298.673
			c0,17.643-14.357,32-32,32h-21.333c-17.643,0-32-14.357-32-32V213.34c0-17.643,14.357-32,32-32h21.333c17.643,0,32,14.357,32,32
			V298.673z"/>
	</g>
</g>
<g>
	<g>
		<path d="M507.989,247.665l-106.667-85.333c-3.221-2.581-7.616-3.051-11.285-1.28c-3.691,1.792-6.037,5.525-6.037,9.621V341.34
			c0,4.117,2.347,7.829,6.037,9.621c1.493,0.704,3.051,1.045,4.629,1.045c2.368,0,4.736-0.789,6.656-2.325l106.667-85.333
			c2.539-2.048,4.011-5.099,4.011-8.341S510.528,249.713,507.989,247.665z M405.333,319.153V192.881l78.933,63.125L405.333,319.153z
			"/>
	</g>
</g>
<g>
	<g>
		<path d="M121.963,161.052c-3.712-1.771-8.107-1.28-11.285,1.28L4.011,247.665C1.472,249.713,0,252.764,0,256.006
			s1.472,6.315,3.989,8.341l106.667,85.333c1.941,1.536,4.309,2.325,6.677,2.325c1.579,0,3.157-0.341,4.629-1.045
			c3.691-1.792,6.037-5.525,6.037-9.621V170.673C128,166.577,125.653,162.844,121.963,161.052z M106.667,319.153l-78.933-63.147
			l78.933-63.125V319.153z"/>
	</g>
</g>
<g>
</g>
<g>
</g>
<g>
</g>
<g>
</g>
<g>
</g>
<g>
</g>
<g>
</g>
<g>
</g>
<g>
</g>
<g>
</g>
<g>
</g>
<g>
</g>
<g>
</g>
<g>
</g>
<g>
</g>
</svg>
